<mxfile host="Electron" modified="2023-04-13T20:50:00.206Z" agent="Mozilla/5.0 (X11; Linux x86_64) AppleWebKit/537.36 (KHTML, like Gecko) draw.io/21.1.2 Chrome/106.0.5249.199 Electron/21.4.3 Safari/537.36" etag="BDWUep71YSJvb1kxxbzm" version="21.1.2" type="device">
  <diagram name="Page-1" id="jig1KxTQIBm6_4zE4UQv">
    <mxGraphModel dx="1434" dy="870" grid="1" gridSize="10" guides="1" tooltips="1" connect="1" arrows="1" fold="1" page="1" pageScale="1" pageWidth="850" pageHeight="1100" math="0" shadow="0">
      <root>
        <mxCell id="0" />
        <mxCell id="1" parent="0" />
        <mxCell id="xtoA8kuY6AniBKlyXmYx-1" value="" style="rounded=1;whiteSpace=wrap;html=1;" parent="1" vertex="1">
          <mxGeometry x="200" y="320" width="160" height="280" as="geometry" />
        </mxCell>
        <mxCell id="xtoA8kuY6AniBKlyXmYx-3" value="" style="rounded=1;whiteSpace=wrap;html=1;" parent="1" vertex="1">
          <mxGeometry x="480" y="320" width="160" height="280" as="geometry" />
        </mxCell>
        <mxCell id="xtoA8kuY6AniBKlyXmYx-4" value="Dropbox&lt;br&gt;Docker" style="rounded=1;whiteSpace=wrap;html=1;fillColor=#d5e8d4;strokeColor=#82b366;" parent="1" vertex="1">
          <mxGeometry x="220" y="400" width="120" height="60" as="geometry" />
        </mxCell>
        <mxCell id="xtoA8kuY6AniBKlyXmYx-7" value="Traffic Forwarding&lt;br&gt;&lt;br&gt;&lt;br&gt;" style="rounded=1;whiteSpace=wrap;html=1;fillColor=#d5e8d4;strokeColor=#82b366;" parent="1" vertex="1">
          <mxGeometry x="500" y="400" width="120" height="60" as="geometry" />
        </mxCell>
        <mxCell id="xtoA8kuY6AniBKlyXmYx-8" value="&lt;font style=&quot;&quot;&gt;&lt;span style=&quot;font-size: 19px;&quot;&gt;C2&lt;/span&gt;&lt;br&gt;&lt;font style=&quot;font-size: 12px;&quot;&gt;(Backend)&lt;/font&gt;&lt;br&gt;&lt;/font&gt;" style="text;html=1;strokeColor=none;fillColor=none;align=center;verticalAlign=middle;whiteSpace=wrap;rounded=0;" parent="1" vertex="1">
          <mxGeometry x="250" y="330" width="60" height="30" as="geometry" />
        </mxCell>
        <mxCell id="xtoA8kuY6AniBKlyXmYx-9" value="&lt;font style=&quot;&quot;&gt;&lt;font style=&quot;font-size: 18px;&quot;&gt;Dropbox-Relay&lt;/font&gt;&lt;br&gt;&lt;font style=&quot;font-size: 12px;&quot;&gt;(Relay)&lt;/font&gt;&lt;br&gt;&lt;/font&gt;" style="text;html=1;strokeColor=none;fillColor=none;align=center;verticalAlign=middle;whiteSpace=wrap;rounded=0;" parent="1" vertex="1">
          <mxGeometry x="472.5" y="330" width="175" height="30" as="geometry" />
        </mxCell>
        <mxCell id="xtoA8kuY6AniBKlyXmYx-11" value="" style="shape=flexArrow;endArrow=classic;html=1;rounded=0;exitX=1;exitY=0.5;exitDx=0;exitDy=0;entryX=0;entryY=0.393;entryDx=0;entryDy=0;entryPerimeter=0;endWidth=22.53472222222222;endSize=9.195833333333335;width=32.91666666666667;fillColor=#dae8fc;strokeColor=#6c8ebf;" parent="1" source="xtoA8kuY6AniBKlyXmYx-4" target="xtoA8kuY6AniBKlyXmYx-3" edge="1">
          <mxGeometry width="50" height="50" relative="1" as="geometry">
            <mxPoint x="390" y="430" as="sourcePoint" />
            <mxPoint x="440" y="380" as="targetPoint" />
          </mxGeometry>
        </mxCell>
        <mxCell id="xtoA8kuY6AniBKlyXmYx-13" value="&lt;font style=&quot;font-size: 10px;&quot;&gt;OpenVPN&lt;/font&gt;" style="text;html=1;strokeColor=none;fillColor=none;align=center;verticalAlign=middle;whiteSpace=wrap;rounded=0;" parent="1" vertex="1">
          <mxGeometry x="380" y="390" width="60" height="30" as="geometry" />
        </mxCell>
        <mxCell id="xtoA8kuY6AniBKlyXmYx-15" value="Operator" style="shape=umlActor;verticalLabelPosition=bottom;verticalAlign=top;html=1;outlineConnect=0;" parent="1" vertex="1">
          <mxGeometry x="30" y="410" width="30" height="60" as="geometry" />
        </mxCell>
        <mxCell id="xtoA8kuY6AniBKlyXmYx-17" value="&lt;font style=&quot;font-size: 10px;&quot;&gt;SSH&lt;/font&gt;" style="text;html=1;strokeColor=none;fillColor=none;align=center;verticalAlign=middle;whiteSpace=wrap;rounded=0;" parent="1" vertex="1">
          <mxGeometry x="100" y="400" width="60" height="30" as="geometry" />
        </mxCell>
        <mxCell id="xtoA8kuY6AniBKlyXmYx-28" value="" style="endArrow=classic;html=1;rounded=0;entryX=0.008;entryY=0.391;entryDx=0;entryDy=0;entryPerimeter=0;" parent="1" target="xtoA8kuY6AniBKlyXmYx-1" edge="1">
          <mxGeometry width="50" height="50" relative="1" as="geometry">
            <mxPoint x="70" y="430" as="sourcePoint" />
            <mxPoint x="150" y="420" as="targetPoint" />
          </mxGeometry>
        </mxCell>
        <mxCell id="tWrmtGprSb9nGrYXSHhV-5" value="Hardware Implant" style="rounded=0;whiteSpace=wrap;html=1;" parent="1" vertex="1">
          <mxGeometry x="730" y="410" width="70" height="40" as="geometry" />
        </mxCell>
        <mxCell id="tWrmtGprSb9nGrYXSHhV-6" value="" style="shape=flexArrow;endArrow=classic;html=1;rounded=0;exitX=0;exitY=0.5;exitDx=0;exitDy=0;entryX=1;entryY=0.5;entryDx=0;entryDy=0;endWidth=9.58382877526754;endSize=7.344827586206897;width=13.10344827586207;fillColor=#e1d5e7;strokeColor=#9673a6;" parent="1" source="tWrmtGprSb9nGrYXSHhV-5" target="xtoA8kuY6AniBKlyXmYx-4" edge="1">
          <mxGeometry width="50" height="50" relative="1" as="geometry">
            <mxPoint x="670" y="359.31" as="sourcePoint" />
            <mxPoint x="810" y="359.31" as="targetPoint" />
          </mxGeometry>
        </mxCell>
        <mxCell id="tWrmtGprSb9nGrYXSHhV-7" value="&lt;font style=&quot;font-size: 10px;&quot;&gt;OpenVPN&lt;/font&gt;" style="text;html=1;strokeColor=none;fillColor=none;align=center;verticalAlign=middle;whiteSpace=wrap;rounded=0;" parent="1" vertex="1">
          <mxGeometry x="660" y="400" width="60" height="30" as="geometry" />
        </mxCell>
      </root>
    </mxGraphModel>
  </diagram>
</mxfile>
